<?xml version="1.0" standalone="no"?>
<!DOCTYPE svg PUBLIC "-//W3C//DTD SVG 20010904//EN"
 "http://www.w3.org/TR/2001/REC-SVG-20010904/DTD/svg10.dtd">
<svg version="1.0" xmlns="http://www.w3.org/2000/svg"
 width="256.000000pt" height="256.000000pt" viewBox="0 0 256.000000 256.000000"
 preserveAspectRatio="xMidYMid meet">
<metadata>
Created by potrace 1.10, written by Peter Selinger 2001-2011
</metadata>
<g transform="translate(0.000000,256.000000) scale(0.100000,-0.100000)"
fill="#000000" stroke="none">
<path d="M1698 2508 c-58 -69 -161 -205 -186 -248 -15 -25 -18 -38 -11 -52 16
-30 -15 -78 -51 -78 -23 0 -31 -5 -36 -26 -4 -14 -2 -30 4 -36 17 -17 -17 -78
-44 -78 -30 0 -39 -13 -68 -102 -30 -89 -32 -155 -8 -249 61 -233 296 -388
532 -352 230 36 407 240 409 473 1 71 -41 191 -104 301 -112 195 -340 499
-374 499 -10 0 -38 -24 -63 -52z m217 -348 c0 -33 -2 -35 -35 -35 -29 0 -36 4
-38 23 -6 40 5 54 40 50 30 -3 33 -6 33 -38z m221 -297 c21 -66 26 -93 20
-136 -18 -157 -113 -283 -253 -338 -81 -31 -205 -31 -286 0 -59 23 -149 88
-166 118 -8 16 -2 18 64 20 143 3 256 51 361 157 96 96 140 187 159 331 l7 49
33 -59 c19 -33 46 -97 61 -142z m-541 57 c0 -33 -2 -35 -35 -35 -29 0 -36 4
-38 23 -6 40 5 54 40 50 30 -3 33 -6 33 -38z m-18 -182 c51 -48 15 -138 -56
-138 -47 0 -81 32 -81 79 0 72 84 109 137 59z"/>
<path d="M2006 1788 c-2 -7 -7 -33 -10 -56 -8 -57 -36 -109 -80 -151 -38 -36
-44 -59 -24 -79 21 -21 44 -13 88 29 56 55 94 138 95 209 0 55 0 55 -33 58
-20 2 -34 -2 -36 -10z"/>
<path d="M1730 1505 c-26 -32 13 -81 48 -59 34 22 22 74 -18 74 -10 0 -23 -7
-30 -15z"/>
<path d="M576 1324 c-31 -30 -8 -69 36 -62 30 4 38 46 12 65 -23 17 -29 16
-48 -3z"/>
<path d="M278 1310 c-96 -20 -246 -67 -265 -83 -18 -13 -16 -42 2 -57 12 -10
39 -6 146 25 72 21 169 43 216 50 93 14 106 21 101 56 -3 22 -8 24 -58 26 -30
1 -94 -6 -142 -17z"/>
<path d="M730 1295 c-26 -31 -7 -49 87 -81 112 -38 158 -64 297 -171 108 -83
131 -94 154 -71 26 26 8 48 -106 135 -139 107 -203 144 -302 178 -84 29 -113
31 -130 10z"/>
<path d="M1847 1155 c-22 -7 -49 -22 -60 -33 -21 -18 -247 -180 -277 -197 -8
-5 -62 -17 -120 -26 l-104 -17 -96 48 c-212 106 -470 195 -541 188 -18 -2 -37
-11 -43 -20 -20 -32 4 -50 94 -69 121 -24 308 -97 501 -195 l73 -36 130 21
129 22 149 107 c82 59 163 115 181 124 35 20 74 23 97 8 12 -8 8 -16 -25 -51
-46 -48 -296 -265 -340 -296 -19 -13 -93 -35 -200 -58 -93 -20 -176 -42 -182
-47 -18 -14 -16 -43 3 -59 13 -10 45 -6 192 26 97 21 186 42 197 46 58 21 475
408 475 440 0 24 -53 66 -98 79 -49 13 -89 12 -135 -5z"/>
<path d="M2151 1010 c-79 -17 -114 -58 -76 -90 12 -10 24 -10 54 -1 56 16 131
13 170 -8 l34 -18 -44 -25 c-175 -100 -535 -284 -720 -368 l-220 -100 -109 0
-108 0 -421 200 -420 201 -137 -3 c-118 -3 -138 -5 -148 -20 -8 -13 -8 -23 0
-35 9 -15 32 -19 145 -23 l134 -5 413 -197 c399 -191 416 -198 475 -198 52 0
140 -25 562 -160 274 -88 505 -160 512 -160 7 0 19 10 27 23 23 37 27 89 11
144 -21 70 -71 112 -170 143 -84 26 -110 22 -110 -21 0 -19 13 -28 88 -58 94
-39 120 -63 115 -109 l-3 -28 -375 121 c-206 66 -381 123 -389 126 -7 3 69 42
170 88 157 71 589 293 769 396 73 41 75 60 12 117 -68 60 -155 85 -241 68z"/>
<path d="M2225 684 c-28 -8 -44 -31 -38 -54 6 -23 2 -22 79 -25 60 -2 93 -13
127 -43 16 -15 -7 -22 -295 -90 -172 -41 -319 -78 -325 -84 -18 -14 -16 -43 2
-58 13 -11 76 1 368 69 194 45 358 88 366 96 31 30 -25 113 -106 158 -49 26
-137 41 -178 31z"/>
</g>
</svg>
